#!OML:ASF H:\LiuWeirdWalks\Patient Classification 1\Patient 1\Session 1\male.ASF
:FULLY-SPECIFIED
:DEGREES
457
root 1.16889 17.7678 -19.5696 4.47347 0.917273 -7.73439
lowerback 13.0388 1.22098 0.199035
upperback 0.500951 2.2381 7.94888
thorax -7.14465 1.24693 8.0403
lowerneck -15.6102 0.935546 9.26068
upperneck 15.72 1.97179 -15.4132
head 7.6521 0.0611308 -6.52494
rclavicle 9.93923e-016 7.95139e-015
rhumerus -16.6811 -19.7238 -3.86614
rradius 31.1309
rwrist 1.16452
rhand -14.1891 -6.0971
rfingers 7.12502
rthumb 11.9468 -35.7362
lclavicle 9.93923e-016 7.95139e-015
lhumerus -23.7817 12.8033 24.6957
lradius 41.0743
lwrist 3.488
lhand -14.3722 5.94956
lfingers 7.12502
lthumb 11.7702 35.5988
rfemur 2.10485 -1.90327 13.8469
rtibia 41.7799
rfoot 15.2505 -14.92
rtoes -8.10863
lfemur -23.4761 2.70415 -12.9927
ltibia 41.9906
lfoot -13.0958 15.7438
ltoes -9.99697
458
root 1.17045 17.7683 -19.4997 4.4514 1.15055 -7.8226
lowerback 12.9245 1.1709 -0.235718
upperback 0.484156 2.09652 7.8584
thorax -7.08979 1.19038 8.2224
lowerneck -15.6403 0.932158 9.38265
upperneck 15.7671 1.88387 -15.1149
head 7.65719 0.0519118 -6.45246
rclavicle -1.07344e-014 -2.70347e-014
rhumerus -16.7207 -19.3905 -3.97008
rradius 31.3885
rwrist 1.0338
rhand -14.0688 -6.08798
rfingers 7.12502
rthumb 12.0628 -35.7203
lclavicle -1.07344e-014 -2.70347e-014
lhumerus -23.582 12.7901 24.61
lradius 41.0134
lwrist 3.18584
lhand -14.1998 5.89215
lfingers 7.12502
lthumb 11.9365 35.5318
rfemur 1.95225 -2.19344 13.9203
rtibia 42.3711
rfoot 15.9384 -14.9247
rtoes -7.47097
lfemur -23.2175 2.60219 -12.8843
ltibia 41.961
lfoot -13.3434 15.6967
ltoes -10.1047
459
root 1.17056 17.7684 -19.4309 4.43208 1.41996 -7.91065
lowerback 12.8107 1.11119 -0.667075
upperback 0.468244 1.94329 7.76447
thorax -7.03064 1.12748 8.40093
lowerneck -15.6959 0.91119 9.47436
upperneck 15.8588 1.77318 -14.7745
head 7.67797 0.0325588 -6.36448
rclavicle -8.15017e-015 -7.95139e-015
rhumerus -16.7948 -19.0667 -4.08081
rradius 31.6332
rwrist 0.873472
rhand -13.8965 -6.05995
rfingers 7.12502
rthumb 12.2289 -35.6824
lclavicle -8.15017e-015 -7.95139e-015
lhumerus -23.3321 12.8126 24.4859
lradius 40.9463
lwrist 2.92785
lhand -14.1018 5.87627
lfingers 7.12502
lthumb 12.031 35.5105
rfemur 1.78217 -2.509 14.0016
rtibia 42.9788
rfoot 16.6517 -14.9198
rtoes -6.59376
lfemur -22.9789 2.5244 -12.7695
ltibia 41.9362
lfoot -13.5876 15.5962
ltoes -10.2586
460
root 1.16871 17.7686 -19.3641 4.41739 1.72242 -8.01602
lowerback 12.703 1.04395 -1.08198
upperback 0.449422 1.78415 7.67533
thorax -6.97508 1.06104 8.57642
lowerneck -15.7671 0.870746 9.50769
upperneck 15.9791 1.64023 -14.38
head 7.70753 0.00353102 -6.25102
rclavicle 1.27222e-014 1.07344e-013
rhumerus -16.8814 -18.7841 -4.19479
rradius 31.8343
rwrist 0.730389
rhand -13.6991 -6.03733
rfingers 7.12502
rthumb 12.4192 -35.6484
lclavicle 1.27222e-014 1.07344e-013
lhumerus -23.048 12.8474 24.3361
lradius 40.8943
lwrist 2.755
lhand -14.0873 5.9104
lfingers 7.12502
lthumb 12.0449 35.5438
rfemur 1.57807 -2.84526 14.1189
rtibia 43.6021
rfoot 17.4138 -14.8853
rtoes -5.48326
lfemur -22.7669 2.47531 -12.6242
ltibia 41.9153
lfoot -13.8281 15.4354
ltoes -10.4455
461
root 1.16497 17.7687 -19.2994 4.40776 2.0555 -8.15855
lowerback 12.6068 0.973718 -1.45691
upperback 0.437694 1.62793 7.59111
thorax -6.91607 0.994198 8.733
lowerneck -15.8706 0.81636 9.49815
upperneck 16.1193 1.48633 -13.9301
head 7.74675 -0.0336509 -6.11431
rclavicle -3.18055e-015 3.97569e-015
rhumerus -16.9964 -18.5633 -4.30263
rradius 31.9935
rwrist 0.611666
rhand -13.4697 -6.0107
rfingers 7.12502
rthumb 12.6404 -35.6082
lclavicle -3.18055e-015 3.97569e-015
lhumerus -22.6938 12.9364 24.1674
lradius 40.8352
lwrist 2.64173
lhand -14.1469 5.97314
lfingers 7.12502
lthumb 11.9874 35.6099
rfemur 1.33828 -3.19417 14.2959
rtibia 44.2398
rfoot 18.2188 -14.8193
rtoes -4.13883
lfemur -22.5851 2.45364 -12.4252
ltibia 41.9017
lfoot -14.0639 15.2157
ltoes -10.6604
462
root 1.16017 17.7687 -19.2356 4.39199 2.40864 -8.3057
lowerback 12.5172 0.897032 -1.82237
upperback 0.432338 1.46534 7.51223
thorax -6.85128 0.923361 8.89099
lowerneck -15.9525 0.74639 9.42416
upperneck 16.2328 1.31723 -13.441
head 7.77205 -0.0768279 -5.95323
rclavicle 2.18663e-015 -6.99722e-014
rhumerus -17.089 -18.419 -4.40554
rradius 32.0892
rwrist 0.536026
rhand -13.225 -6.00686
rfingers 7.12502
rthumb 12.8763 -35.5897
lclavicle 2.18663e-015 -6.99722e-014
lhumerus -22.3267 13.0448 23.9833
lradius 40.7932
lwrist 2.59563
lhand -14.2345 5.98856
lfingers 7.12502
lthumb 11.903 35.6302
rfemur 1.08537 -3.5545 14.4851
rtibia 44.8903
rfoot 19.0056 -14.7609
rtoes -2.57352
lfemur -22.4104 2.44756 -12.2114
ltibia 41.893
lfoot -14.3014 14.9519
ltoes -10.8871
